<svg xmlns="http://www.w3.org/2000/svg" xmlns:xlink="http://www.w3.org/1999/xlink" width="500" zoomAndPan="magnify" viewBox="0 0 375 374.999991" height="500" preserveAspectRatio="xMidYMid meet" version="1.0"><path fill="#058789" d="M 288.847656 236.460938 C 305.4375 236.460938 318.929688 249.953125 318.929688 266.542969 C 318.929688 283.125 305.4375 296.625 288.847656 296.625 C 272.261719 296.625 258.765625 283.125 258.765625 266.542969 C 258.765625 249.953125 272.261719 236.460938 288.847656 236.460938 Z M 212.011719 6.875 C 198.460938 12.886719 189.046875 22.917969 184.785156 35.878906 C 179.945312 50.617188 181.4375 66.96875 188.992188 81.921875 C 192.785156 89.421875 197.613281 96.320312 202.644531 103.316406 C 207.554688 110.132812 212.824219 117.101562 218.308594 124.019531 C 218.507812 124.273438 218.75 124.484375 219.019531 124.632812 C 232.992188 145.535156 240.371094 169.902344 240.371094 195.144531 C 240.371094 210.023438 237.824219 224.585938 232.796875 238.441406 L 226.1875 238.441406 L 226.1875 159.453125 L 168.4375 159.453125 L 168.4375 238.441406 L 85.292969 238.441406 L 85.292969 297.707031 L 168.4375 297.707031 L 168.4375 309.621094 C 151.195312 317.933594 132.671875 322.148438 113.367188 322.148438 C 83.355469 322.148438 54.234375 311.484375 31.367188 292.125 L 29.003906 294.476562 C 30.15625 295.847656 31.382812 297.238281 32.648438 298.609375 L 32.746094 298.703125 C 56.859375 320.875 88.183594 333.085938 120.957031 333.085938 C 138.207031 333.085938 154.957031 329.769531 170.75 323.234375 C 188.378906 315.941406 204.515625 304.59375 217.410156 290.414062 C 230.371094 276.167969 240.160156 258.941406 245.714844 240.601562 C 249.425781 228.382812 251.308594 215.644531 251.308594 202.726562 C 251.308594 171.339844 239.988281 141.019531 219.4375 117.347656 C 214.074219 110.472656 209.011719 103.667969 204.382812 97.121094 C 198.976562 89.472656 194.734375 82.910156 191.601562 75.714844 C 184.5625 59.546875 185.617188 40.480469 194.289062 27.144531 C 200.574219 17.484375 212.789062 10.105469 226.964844 7.414062 C 239.945312 4.949219 255.34375 6.105469 269.222656 10.582031 C 300.496094 20.675781 318.125 52.683594 325.847656 70.867188 C 337.59375 98.515625 342.082031 130.398438 338.828125 163.066406 C 336.683594 184.617188 329.511719 214.585938 307.652344 235.605469 C 302.167969 232.257812 295.730469 230.328125 288.847656 230.328125 C 268.882812 230.328125 252.636719 246.574219 252.636719 266.542969 C 252.636719 286.507812 268.882812 302.753906 288.847656 302.753906 C 308.816406 302.753906 325.0625 286.507812 325.0625 266.542969 C 325.0625 255.285156 319.894531 245.210938 311.8125 238.5625 C 314.003906 236.421875 316.058594 234.222656 317.917969 231.996094 C 334.160156 212.585938 343.398438 184.773438 344.632812 151.570312 C 345.945312 116.109375 338.765625 82.777344 323.867188 55.175781 C 316.136719 40.851562 306.765625 28.992188 296.007812 19.925781 C 284.753906 10.445312 271.113281 4.53125 255.449219 2.355469 C 238.660156 0.0195312 224.046875 1.539062 212.011719 6.875 " fill-opacity="1" fill-rule="nonzero"/><path fill="#05696b" d="M 288.847656 243.472656 C 276.109375 243.472656 265.785156 253.800781 265.785156 266.542969 C 265.785156 279.28125 276.109375 289.609375 288.847656 289.609375 C 301.589844 289.609375 311.914062 279.28125 311.914062 266.542969 C 311.914062 253.800781 301.589844 243.472656 288.847656 243.472656 Z M 258.214844 240.117188 L 253.75 240.117188 C 248.742188 261.253906 238.515625 280.367188 224.511719 296.03125 L 261.15625 296.03125 C 253.296875 288.652344 248.390625 278.167969 248.390625 266.539062 C 248.390625 256.441406 252.089844 247.207031 258.214844 240.117188 Z M 170.109375 375.027344 L 170.109375 332.136719 C 191.261719 324.917969 209.9375 312.347656 224.515625 296.035156 L 224.515625 375.027344 L 170.109375 375.027344 " fill-opacity="1" fill-rule="nonzero"/></svg>